<?xml version="1.0" encoding="UTF-8" standalone="no"?>
<!-- Created with Inkscape (http://www.inkscape.org/) -->

<svg
   width="536"
   height="512"
   viewBox="0 0 141.81667 135.46667"
   version="1.1"
   id="svg5"
   xmlns="http://www.w3.org/2000/svg"
   xmlns:svg="http://www.w3.org/2000/svg">
  <defs
     id="defs2" />
  <g
     id="layer1">
    <path
       fill="currentColor"
       d="M 134.51533,45.421362 95.801759,39.777285 78.498555,4.6939455 c -3.100258,-6.2535267 -12.083084,-6.3330212 -15.209848,0 L 45.985515,39.777285 7.2719505,45.421362 C 0.32947771,46.428286 -2.4528121,54.987133 2.5818006,59.889263 L 30.590182,87.182195 23.965689,125.73676 c -1.192416,6.96898 6.147526,12.18907 12.295064,8.92984 l 34.632878,-18.20415 34.632889,18.20415 c 6.14753,3.23274 13.48746,-1.96086 12.29507,-8.92984 l -6.62451,-38.554565 28.00839,-27.292932 c 5.03461,-4.90213 2.25232,-13.460977 -4.69014,-14.467901 z m -36.964705,37.309177 6.280015,36.673211 -32.937009,-17.30318 -32.937008,17.30318 16.352874,-8.42976 0.102412,-59.564081 v 0 l 16.481752,-33.387471 16.481751,33.387471 36.832218,5.352589 z"
       id="path17"
       style="stroke-width:0.26498" />
  </g>
</svg>
