<?xml version="1.0" encoding="UTF-8" standalone="no"?>
<!-- Created with Inkscape (http://www.inkscape.org/) -->

<svg
   width="210mm"
   height="297mm"
   viewBox="0 0 210 297"
   version="1.1"
   id="svg5"
   inkscape:version="1.1 (c68e22c387, 2021-05-23)"
   sodipodi:docname="quarterstar.svg"
   xmlns:inkscape="http://www.inkscape.org/namespaces/inkscape"
   xmlns:sodipodi="http://sodipodi.sourceforge.net/DTD/sodipodi-0.dtd"
   xmlns="http://www.w3.org/2000/svg"
   xmlns:svg="http://www.w3.org/2000/svg">
  <sodipodi:namedview
     id="namedview7"
     pagecolor="#ffffff"
     bordercolor="#666666"
     borderopacity="1.0"
     inkscape:pageshadow="2"
     inkscape:pageopacity="0.0"
     inkscape:pagecheckerboard="0"
     inkscape:document-units="mm"
     showgrid="false"
     inkscape:zoom="1.3416246"
     inkscape:cx="338.76839"
     inkscape:cy="404.73319"
     inkscape:window-width="1182"
     inkscape:window-height="1020"
     inkscape:window-x="1927"
     inkscape:window-y="42"
     inkscape:window-maximized="0"
     inkscape:current-layer="layer1" />
  <defs
     id="defs2" />
  <g
     inkscape:label="Layer 1"
     inkscape:groupmode="layer"
     id="layer1">
    <path
       fill="currentColor"
       d="M 145.17188,71.510197 106.51625,65.874572 89.23896,30.843738 c -3.095625,-6.244167 -12.065,-6.323542 -15.187084,0 L 56.774585,65.874572 18.11896,71.510197 c -6.932083,1.005416 -9.7102085,9.551458 -4.683125,14.44625 L 41.402293,113.20853 34.78771,151.7054 c -1.190625,6.95854 6.138333,12.17083 12.276666,8.91646 l 34.581042,-18.17688 34.581042,18.17688 c 6.13833,3.22791 13.46729,-1.95792 12.27667,-8.91646 L 121.88854,113.20853 149.855,85.956447 c 5.02709,-4.894792 2.24896,-13.440834 -4.68312,-14.44625 z m -36.90938,37.253333 6.27063,36.61833 -32.887712,-17.27729 -32.887708,17.27729 16.328394,-8.41713 0.102231,-59.47495 v 0 l 16.457083,-33.3375 16.457083,33.3375 36.777089,5.344583 z"
       id="path17"
       style="stroke-width:0.264583"
       sodipodi:nodetypes="ccccccccccccccccccccccccccc" />
  </g>
</svg>
