<?xml version="1.0" encoding="UTF-8" standalone="no"?>
<svg
   width="576"
   height="512"
   viewBox="0 0 576 512"
   version="1.1"
   id="svg4"
   xmlns="http://www.w3.org/2000/svg"
   xmlns:svg="http://www.w3.org/2000/svg">
  <defs
     id="defs8" />
  <path
     fill="currentColor"
     d="M 530.3083,171.51 383.9383,150.2 318.5283,17.81 C 312.6483,5.98 301.1783,0 289.7083,0 c -11.4,0 -22.79,5.9 -28.69,17.81 l -65.43,132.38 -146.38,21.29 c -26.25,3.8 -36.77,36.09 -17.74,54.59 l 105.89,103 -25.06,145.48 c -3.56,20.78 13.03,37.45 31.61,37.45 4.93,0 10,-1.17 14.87,-3.75 l 130.95,-68.68 130.94,68.7 c 4.86,2.55 9.92,3.71 14.83,3.71 18.6,0 35.22,-16.61 31.66,-37.4 l -25.03,-145.49 105.91,-102.98 c 19.04,-18.5 8.52,-50.8 -17.73,-54.6 z m -121.74,123.2 -18.12,17.62 4.28,24.88 19.52,113.45 -102.13,-53.59 -22.38,-11.74 0.03,-317.19 51.03,103.29 11.18,22.63 25.01,3.64 114.23,16.63 z"
     id="path2" />
</svg>
