<?xml version="1.0" encoding="UTF-8" standalone="no"?>
<!-- Created with Inkscape (http://www.inkscape.org/) -->

<svg
   width="576"
   height="512"
   viewBox="0 0 152.4 135.46667"
   version="1.1"
   id="svg5"
   xmlns="http://www.w3.org/2000/svg"
   xmlns:svg="http://www.w3.org/2000/svg">
  <defs
     id="defs2" />
  <g
     id="layer1"
     transform="matrix(11.134956,0,0,11.134956,5.1983489,-2.9402188)">
    <path
       fill="currentColor"
       d="M 12.056763,4.340331 8.6059305,3.8336296 7.0635665,0.68399262 c -0.2763501,-0.5614157 -1.0770567,-0.56855233 -1.3557688,0 L 4.1654335,3.8336296 0.71460045,4.340331 C 0.09576518,4.4307284 -0.15224131,5.1991067 0.2965323,5.6391995 L 2.793131,8.089446 2.2026394,11.550715 C 2.0963508,12.176361 2.7506156,12.645 3.2985918,12.352398 l 3.0870903,-1.634292 3.0870901,1.634292 c 0.5479748,0.290223 1.2022408,-0.176037 1.0959518,-0.801683 L 9.9782333,8.089446 12.474832,5.6391995 C 12.923606,5.1991067 12.675599,4.4307284 12.056763,4.340331 Z M 8.7618204,7.6897937 9.3216071,10.982163 6.3856821,9.4287551 7.8548698,10.467954 V 8.7182117 7.7908546 L 7.8548253,4.8779578 6.3856821,1.8805692 7.8548253,4.8779578 11.137959,5.3584916 Z"
       id="path17"
       style="stroke-width:0.0237041" />
  </g>
</svg>
